<svg width="145" height="56" viewBox="0 0 145 56" fill="none" xmlns="http://www.w3.org/2000/svg">
<g clip-path="url(#clip0_1_2)">
<rect x="6" y="5" width="131" height="45" rx="10" fill="#FFD700"/>
<path d="M39.3714 22.8182V33H37.7308L32.9332 26.0646H32.8487V33H31.0043V22.8182H32.6548L37.4474 29.7585H37.5369V22.8182H39.3714ZM46.1689 29.7884V25.3636H47.9686V33H46.2235V31.6428H46.144C45.9717 32.0703 45.6883 32.42 45.2939 32.6918C44.9028 32.9635 44.4205 33.0994 43.8471 33.0994C43.3467 33.0994 42.9042 32.9884 42.5197 32.7663C42.1386 32.541 41.8403 32.2145 41.6248 31.7869C41.4094 31.3561 41.3017 30.8357 41.3017 30.2259V25.3636H43.1014V29.9474C43.1014 30.4313 43.234 30.8158 43.4991 31.1009C43.7643 31.3859 44.1123 31.5284 44.5431 31.5284C44.8083 31.5284 45.0652 31.4638 45.3137 31.3345C45.5623 31.2053 45.7662 31.013 45.9252 30.7578C46.0877 30.4993 46.1689 30.1761 46.1689 29.7884ZM53.1999 33.1491C52.4343 33.1491 51.7731 32.9901 51.2163 32.6719C50.6628 32.3504 50.2369 31.8963 49.9386 31.3097C49.6403 30.7197 49.4911 30.0253 49.4911 29.2266C49.4911 28.4411 49.6403 27.7517 49.9386 27.1584C50.2402 26.5618 50.6611 26.0978 51.2013 25.7663C51.7416 25.4316 52.3763 25.2642 53.1055 25.2642C53.5761 25.2642 54.0202 25.3404 54.4379 25.4929C54.8588 25.642 55.23 25.8741 55.5515 26.1889C55.8763 26.5038 56.1315 26.9048 56.3171 27.392C56.5027 27.8759 56.5955 28.4527 56.5955 29.1222V29.674H50.3363V28.4609H54.8704C54.8671 28.1162 54.7925 27.8097 54.6467 27.5412C54.5008 27.2694 54.297 27.0556 54.0352 26.8999C53.7766 26.7441 53.475 26.6662 53.1303 26.6662C52.7624 26.6662 52.4393 26.7557 52.1609 26.9347C51.8825 27.1103 51.6654 27.3423 51.5096 27.6307C51.3571 27.9157 51.2792 28.2289 51.2759 28.5703V29.6293C51.2759 30.0734 51.3571 30.4545 51.5195 30.7727C51.6819 31.0876 51.909 31.3295 52.2006 31.4986C52.4923 31.6643 52.8337 31.7472 53.2248 31.7472C53.4866 31.7472 53.7236 31.7107 53.9357 31.6378C54.1478 31.5616 54.3318 31.4505 54.4876 31.3047C54.6433 31.1589 54.761 30.9782 54.8406 30.7628L56.521 30.9517C56.4149 31.3958 56.2127 31.7836 55.9144 32.1151C55.6194 32.4432 55.2416 32.6984 54.7809 32.8807C54.3202 33.0597 53.7932 33.1491 53.1999 33.1491ZM64.7203 25.3636L62.0009 33H60.0123L57.2928 25.3636H59.2118L60.9668 31.0362H61.0463L62.8063 25.3636H64.7203ZM67.9444 33.1541C67.4605 33.1541 67.0247 33.0679 66.6369 32.8956C66.2524 32.7199 65.9475 32.4614 65.7221 32.12C65.5001 31.7786 65.389 31.3577 65.389 30.8572C65.389 30.4264 65.4686 30.0701 65.6277 29.7884C65.7868 29.5066 66.0038 29.2812 66.2789 29.1122C66.554 28.9432 66.8639 28.8156 67.2086 28.7294C67.5566 28.6399 67.9163 28.5753 68.2875 28.5355C68.7349 28.4891 69.0978 28.4477 69.3762 28.4112C69.6547 28.3714 69.8568 28.3118 69.9828 28.2322C70.112 28.1494 70.1767 28.0218 70.1767 27.8494V27.8196C70.1767 27.4451 70.0656 27.1551 69.8436 26.9496C69.6215 26.7441 69.3017 26.6413 68.8841 26.6413C68.4432 26.6413 68.0936 26.7375 67.835 26.9297C67.5798 27.1219 67.4075 27.349 67.318 27.6108L65.6376 27.3722C65.7702 26.9081 65.9889 26.5204 66.2939 26.2088C66.5988 25.8939 66.9717 25.6586 67.4125 25.5028C67.8533 25.3438 68.3405 25.2642 68.8741 25.2642C69.242 25.2642 69.6083 25.3073 69.9728 25.3935C70.3374 25.4796 70.6705 25.6222 70.9721 25.821C71.2737 26.0166 71.5157 26.2834 71.698 26.6214C71.8836 26.9595 71.9764 27.3821 71.9764 27.8892V33H70.2463V31.951H70.1866C70.0772 32.1631 69.9231 32.362 69.7243 32.5476C69.5287 32.7299 69.2818 32.8774 68.9835 32.9901C68.6885 33.0994 68.3422 33.1541 67.9444 33.1541ZM68.4118 31.8317C68.773 31.8317 69.0862 31.7604 69.3514 31.6179C69.6165 31.4721 69.8204 31.2798 69.9629 31.0412C70.1087 30.8026 70.1816 30.5424 70.1816 30.2607V29.3608C70.1253 29.4072 70.0292 29.4503 69.8933 29.4901C69.7607 29.5298 69.6116 29.5646 69.4458 29.5945C69.2801 29.6243 69.1161 29.6508 68.9537 29.674C68.7913 29.6972 68.6504 29.7171 68.5311 29.7337C68.2626 29.7701 68.0223 29.8298 67.8102 29.9126C67.5981 29.9955 67.4307 30.1115 67.3081 30.2607C67.1854 30.4065 67.1241 30.5954 67.1241 30.8274C67.1241 31.1589 67.2451 31.4091 67.487 31.5781C67.729 31.7472 68.0372 31.8317 68.4118 31.8317ZM81.0719 25.3636V26.7557H76.682V25.3636H81.0719ZM77.7658 23.5341H79.5655V30.7031C79.5655 30.9451 79.602 31.1307 79.6749 31.2599C79.7511 31.3859 79.8506 31.4721 79.9732 31.5185C80.0958 31.5649 80.2317 31.5881 80.3809 31.5881C80.4935 31.5881 80.5963 31.5798 80.6891 31.5632C80.7852 31.5466 80.8581 31.5317 80.9078 31.5185L81.2111 32.9254C81.115 32.9586 80.9775 32.995 80.7985 33.0348C80.6228 33.0746 80.4074 33.0978 80.1522 33.1044C79.7014 33.1177 79.2954 33.0497 78.9341 32.9006C78.5729 32.7481 78.2862 32.5128 78.074 32.1946C77.8652 31.8764 77.7625 31.4787 77.7658 31.0014V23.5341ZM84.7745 33.1541C84.2906 33.1541 83.8548 33.0679 83.467 32.8956C83.0825 32.7199 82.7776 32.4614 82.5522 32.12C82.3301 31.7786 82.2191 31.3577 82.2191 30.8572C82.2191 30.4264 82.2987 30.0701 82.4577 29.7884C82.6168 29.5066 82.8339 29.2812 83.109 29.1122C83.3841 28.9432 83.694 28.8156 84.0387 28.7294C84.3867 28.6399 84.7463 28.5753 85.1175 28.5355C85.565 28.4891 85.9279 28.4477 86.2063 28.4112C86.4847 28.3714 86.6869 28.3118 86.8129 28.2322C86.9421 28.1494 87.0067 28.0218 87.0067 27.8494V27.8196C87.0067 27.4451 86.8957 27.1551 86.6737 26.9496C86.4516 26.7441 86.1317 26.6413 85.7141 26.6413C85.2733 26.6413 84.9237 26.7375 84.6651 26.9297C84.4099 27.1219 84.2376 27.349 84.1481 27.6108L82.4677 27.3722C82.6003 26.9081 82.819 26.5204 83.1239 26.2088C83.4289 25.8939 83.8017 25.6586 84.2425 25.5028C84.6834 25.3438 85.1706 25.2642 85.7042 25.2642C86.0721 25.2642 86.4383 25.3073 86.8029 25.3935C87.1675 25.4796 87.5006 25.6222 87.8022 25.821C88.1038 26.0166 88.3458 26.2834 88.5281 26.6214C88.7137 26.9595 88.8065 27.3821 88.8065 27.8892V33H87.0763V31.951H87.0167C86.9073 32.1631 86.7532 32.362 86.5543 32.5476C86.3588 32.7299 86.1119 32.8774 85.8136 32.9901C85.5186 33.0994 85.1722 33.1541 84.7745 33.1541ZM85.2418 31.8317C85.6031 31.8317 85.9163 31.7604 86.1815 31.6179C86.4466 31.4721 86.6504 31.2798 86.793 31.0412C86.9388 30.8026 87.0117 30.5424 87.0117 30.2607V29.3608C86.9554 29.4072 86.8593 29.4503 86.7234 29.4901C86.5908 29.5298 86.4416 29.5646 86.2759 29.5945C86.1102 29.6243 85.9461 29.6508 85.7837 29.674C85.6213 29.6972 85.4805 29.7171 85.3612 29.7337C85.0927 29.7701 84.8524 29.8298 84.6403 29.9126C84.4281 29.9955 84.2608 30.1115 84.1381 30.2607C84.0155 30.4065 83.9542 30.5954 83.9542 30.8274C83.9542 31.1589 84.0752 31.4091 84.3171 31.5781C84.5591 31.7472 84.8673 31.8317 85.2418 31.8317ZM90.6161 33V25.3636H92.3612V26.6364H92.4407C92.5799 26.1955 92.8185 25.8558 93.1566 25.6172C93.498 25.3752 93.8874 25.2543 94.3249 25.2543C94.4244 25.2543 94.5354 25.2592 94.658 25.2692C94.784 25.2758 94.8884 25.2874 94.9712 25.304V26.9595C94.895 26.933 94.774 26.9098 94.6083 26.8899C94.4459 26.8667 94.2885 26.8551 94.136 26.8551C93.8079 26.8551 93.5129 26.9264 93.2511 27.0689C92.9925 27.2081 92.7887 27.402 92.6396 27.6506C92.4904 27.8991 92.4158 28.1858 92.4158 28.5107V33H90.6161ZM99.2331 33.1491C98.4675 33.1491 97.8063 32.9901 97.2495 32.6719C96.696 32.3504 96.2701 31.8963 95.9718 31.3097C95.6735 30.7197 95.5243 30.0253 95.5243 29.2266C95.5243 28.4411 95.6735 27.7517 95.9718 27.1584C96.2734 26.5618 96.6943 26.0978 97.2346 25.7663C97.7748 25.4316 98.4095 25.2642 99.1387 25.2642C99.6093 25.2642 100.053 25.3404 100.471 25.4929C100.892 25.642 101.263 25.8741 101.585 26.1889C101.91 26.5038 102.165 26.9048 102.35 27.392C102.536 27.8759 102.629 28.4527 102.629 29.1222V29.674H96.3695V28.4609H100.904C100.9 28.1162 100.826 27.8097 100.68 27.5412C100.534 27.2694 100.33 27.0556 100.068 26.8999C99.8098 26.7441 99.5082 26.6662 99.1635 26.6662C98.7956 26.6662 98.4725 26.7557 98.1941 26.9347C97.9157 27.1103 97.6986 27.3423 97.5428 27.6307C97.3903 27.9157 97.3124 28.2289 97.3091 28.5703V29.6293C97.3091 30.0734 97.3903 30.4545 97.5527 30.7727C97.7151 31.0876 97.9422 31.3295 98.2338 31.4986C98.5255 31.6643 98.8669 31.7472 99.258 31.7472C99.5198 31.7472 99.7568 31.7107 99.9689 31.6378C100.181 31.5616 100.365 31.4505 100.521 31.3047C100.677 31.1589 100.794 30.9782 100.874 30.7628L102.554 30.9517C102.448 31.3958 102.246 31.7836 101.948 32.1151C101.653 32.4432 101.275 32.6984 100.814 32.8807C100.353 33.0597 99.8264 33.1491 99.2331 33.1491ZM106.349 33.1541C105.865 33.1541 105.429 33.0679 105.041 32.8956C104.657 32.7199 104.352 32.4614 104.126 32.12C103.904 31.7786 103.793 31.3577 103.793 30.8572C103.793 30.4264 103.873 30.0701 104.032 29.7884C104.191 29.5066 104.408 29.2812 104.683 29.1122C104.958 28.9432 105.268 28.8156 105.613 28.7294C105.961 28.6399 106.321 28.5753 106.692 28.5355C107.139 28.4891 107.502 28.4477 107.781 28.4112C108.059 28.3714 108.261 28.3118 108.387 28.2322C108.516 28.1494 108.581 28.0218 108.581 27.8494V27.8196C108.581 27.4451 108.47 27.1551 108.248 26.9496C108.026 26.7441 107.706 26.6413 107.288 26.6413C106.848 26.6413 106.498 26.7375 106.239 26.9297C105.984 27.1219 105.812 27.349 105.722 27.6108L104.042 27.3722C104.174 26.9081 104.393 26.5204 104.698 26.2088C105.003 25.8939 105.376 25.6586 105.817 25.5028C106.258 25.3438 106.745 25.2642 107.278 25.2642C107.646 25.2642 108.013 25.3073 108.377 25.3935C108.742 25.4796 109.075 25.6222 109.376 25.821C109.678 26.0166 109.92 26.2834 110.102 26.6214C110.288 26.9595 110.381 27.3821 110.381 27.8892V33H108.651V31.951H108.591C108.482 32.1631 108.327 32.362 108.129 32.5476C107.933 32.7299 107.686 32.8774 107.388 32.9901C107.093 33.0994 106.746 33.1541 106.349 33.1541ZM106.816 31.8317C107.177 31.8317 107.491 31.7604 107.756 31.6179C108.021 31.4721 108.225 31.2798 108.367 31.0412C108.513 30.8026 108.586 30.5424 108.586 30.2607V29.3608C108.53 29.4072 108.433 29.4503 108.298 29.4901C108.165 29.5298 108.016 29.5646 107.85 29.5945C107.684 29.6243 107.52 29.6508 107.358 29.674C107.196 29.6972 107.055 29.7171 106.935 29.7337C106.667 29.7701 106.427 29.8298 106.214 29.9126C106.002 29.9955 105.835 30.1115 105.712 30.2607C105.59 30.4065 105.528 30.5954 105.528 30.8274C105.528 31.1589 105.649 31.4091 105.891 31.5781C106.133 31.7472 106.442 31.8317 106.816 31.8317ZM114.393 22.8182L114.229 30.0071H112.628L112.469 22.8182H114.393ZM113.428 33.1094C113.127 33.1094 112.868 33.0033 112.653 32.7912C112.441 32.5791 112.335 32.3205 112.335 32.0156C112.335 31.7173 112.441 31.4621 112.653 31.25C112.868 31.0379 113.127 30.9318 113.428 30.9318C113.723 30.9318 113.978 31.0379 114.194 31.25C114.413 31.4621 114.522 31.7173 114.522 32.0156C114.522 32.2178 114.471 32.4018 114.368 32.5675C114.268 32.7332 114.136 32.8658 113.97 32.9652C113.808 33.0613 113.627 33.1094 113.428 33.1094Z" fill="black"/>
<path d="M128.5 -1L130.184 4.18237H135.633L131.225 7.38525L132.908 12.5676L128.5 9.36475L124.092 12.5676L125.775 7.38525L121.367 4.18237H126.816L128.5 -1Z" fill="#B76E79"/>
<path d="M96.5 41L98.1839 46.1824H103.633L99.2245 49.3853L100.908 54.5676L96.5 51.3647L92.0916 54.5676L93.7755 49.3853L89.3671 46.1824H94.8161L96.5 41Z" fill="#B76E79"/>
<path d="M7.5 1L9.18386 6.18237H14.6329L10.2245 9.38525L11.9084 14.5676L7.5 11.3647L3.09161 14.5676L4.77547 9.38525L0.367076 6.18237H5.81614L7.5 1Z" fill="#B76E79"/>
</g>
<defs>
<clipPath id="clip0_1_2">
<rect width="145" height="56" fill="white"/>
</clipPath>
</defs>
</svg>
